# xmcd
#
# Track frame offsets: 
#        150
#        18074
#        37204
#        50593
#        67470
#        84385
#        96646
#        111564
#        131018
#        147719
#        163349
#        179670
#        192288
#        204719
#
# Disc length: 2867 seconds
#
# Revision: 0
# Processed by: cddbd v1.5.2PL0 Copyright (c) Steve Scherf et al.
# Submitted via: ExactAudioCopy v0.99pb4
#
DISCID=e90b310e
DTITLE=Paul James Band - Lost In The Blues
DYEAR=2007
DGENRE=Blues
TTITLE0=01_Lost In The Blues
TTITLE1=02_Cut You Loose
TTITLE2=03_Boogie Woogie Baby
TTITLE3=04_Bull Calf Blues
TTITLE4=05_Rockin' The Blues Away
TTITLE5=06_Little Girl
TTITLE6=07_Im Going Fishin
TTITLE7=08_You Don't Love Me
TTITLE8=09_Love Changin Blues
TTITLE9=10_The Blues Walk In
TTITLE10=11_Like The Girl I Had Before
TTITLE11=12_Jitterbug Swing
TTITLE12=13_Trick Or Treat
TTITLE13=14_Rosie
EXTD=
EXTT0=
EXTT1=
EXTT2=
EXTT3=
EXTT4=
EXTT5=
EXTT6=
EXTT7=
EXTT8=
EXTT9=
EXTT10=
EXTT11=
EXTT12=
EXTT13=
PLAYORDER=
